<svg xmlns="http://www.w3.org/2000/svg" viewBox="0 0 460 224" role="img" aria-label="Paper workspace theme preview">
  <defs>
    <filter id="paper" x="0" y="0" width="100%" height="100%" color-interpolation-filters="sRGB">
      <feTurbulence type="fractalNoise" baseFrequency="0.017 0.31" numOctaves="4" seed="41" stitchTiles="stitch" result="fibres"/>
      <feColorMatrix in="fibres" type="matrix" values=".16 .16 .16 0 .24 .14 .14 .14 0 .20 .11 .11 .11 0 .15 0 0 0 .028 0" result="fibres-toned"/>
      <feTurbulence type="fractalNoise" baseFrequency="0.82" numOctaves="3" seed="19" stitchTiles="stitch" result="grain"/>
      <feColorMatrix in="grain" type="matrix" values=".18 .18 .18 0 .22 .16 .16 .16 0 .18 .13 .13 .13 0 .13 0 0 0 .095 0" result="grain-toned"/>
      <feTurbulence type="fractalNoise" baseFrequency="0.031" numOctaves="4" seed="61" stitchTiles="stitch" result="mottle"/>
      <feColorMatrix in="mottle" type="matrix" values=".17 .17 .17 0 .23 .15 .15 .15 0 .19 .12 .12 .12 0 .14 0 0 0 .04 0" result="mottle-toned"/>
      <feMerge><feMergeNode in="fibres-toned"/><feMergeNode in="grain-toned"/><feMergeNode in="mottle-toned"/></feMerge>
    </filter>
    <linearGradient id="banner" x1="0" x2="1">
      <stop offset="0" stop-color="#d9d0c1"/>
      <stop offset="0.5" stop-color="#f2ede4"/>
      <stop offset="1" stop-color="#b9aa96"/>
    </linearGradient>
  </defs>
  <rect width="460" height="224" fill="#f7f2e8"/>
  <rect width="460" height="224" fill="transparent" filter="url(#paper)"/>
  <rect x="18" y="20" width="30" height="30" rx="3" fill="#f4ecdd" stroke="#cdbfa9"/>
  <path d="M26 35l7-7 7 7v8H28v-8" fill="none" stroke="#8c704f" stroke-width="2"/>
  <rect x="59" y="21" width="128" height="11" rx="2" fill="#41372f" opacity=".9"/>
  <rect x="59" y="40" width="176" height="5" rx="2" fill="#7c7064" opacity=".38"/>
  <rect x="370" y="24" width="72" height="20" rx="4" fill="#fbf7ef" stroke="#d6c9b7"/>
  <rect x="14" y="62" width="432" height="66" rx="3" fill="#faf7f0" stroke="#d6c9b7"/>
  <rect x="20" y="68" width="420" height="54" rx="1" fill="url(#banner)"/>
  <path d="M14 145h432" stroke="#cbbda9"/>
  <path d="M192 145h75" stroke="#896c49" stroke-width="2"/>
  <g fill="#fbf7ef" stroke="#d8cdbc">
    <rect x="14" y="157" width="101" height="51" rx="3"/>
    <rect x="122" y="157" width="101" height="51" rx="3"/>
    <rect x="230" y="157" width="101" height="51" rx="3"/>
    <rect x="338" y="157" width="108" height="51" rx="3"/>
  </g>
  <g fill="#5f5348" opacity=".72">
    <rect x="24" y="166" width="48" height="5" rx="2"/>
    <rect x="132" y="166" width="48" height="5" rx="2"/>
    <rect x="240" y="166" width="48" height="5" rx="2"/>
    <rect x="348" y="166" width="55" height="5" rx="2"/>
  </g>
  <g stroke="#9d8f7e" opacity=".34">
    <path d="M24 181h80M24 192h68M132 181h80M132 192h64M240 181h80M240 192h71M348 181h88M348 192h73"/>
  </g>
</svg>
