<?xml version="1.0" standalone="no"?><!DOCTYPE svg PUBLIC "-//W3C//DTD SVG 1.1//EN" "http://www.w3.org/Graphics/SVG/1.1/DTD/svg11.dtd"><svg t="1765543096375" class="icon" viewBox="0 0 1277 1024" version="1.1" xmlns="http://www.w3.org/2000/svg" p-id="8544" xmlns:xlink="http://www.w3.org/1999/xlink" width="249.4140625" height="200"><path d="M877.983756 0.000149a397.866454 397.866454 0 0 0-291.252539 126.417896 212.632222 212.632222 0 0 0-373.297604 139.372381v5.360476a265.790277 265.790277 0 0 0 53.009153 526.36898h611.54099a398.759866 398.759866 0 0 0 0-797.519733z" fill="#F2F2F2" p-id="8545"></path><path d="M1132.457472 91.426048A398.759866 398.759866 0 0 1 824.825701 744.510728H213.433613a264.59906 264.59906 0 0 1-159.474166-53.306957 265.641375 265.641375 0 0 0 212.632221 106.316111h611.392088A398.759866 398.759866 0 0 0 1132.457472 91.426048z" fill="#E2E2E2" p-id="8546"></path><path d="M571.841006 951.931376a17.868254 17.868254 0 0 1-8.934127-2.382434L313.495835 805.709498A18.017156 18.017156 0 1 1 331.661893 774.291152L581.519643 918.4284a18.017156 18.017156 0 0 1-9.083029 33.502976z" fill="#4A89DC" p-id="8547"></path><path d="M369.334128 835.043215a18.166058 18.166058 0 0 1-17.421547-13.401191l-13.103387-49.137698a18.017156 18.017156 0 1 1 34.247487-9.231931l13.252288 49.137698a18.017156 18.017156 0 0 1-12.358875 21.441905 16.379233 16.379233 0 0 1-4.615966 1.191217z" fill="#4A89DC" p-id="8548"></path><path d="M320.19643 848.74221a17.868254 17.868254 0 0 1-4.615966-35.289802l49.137699-13.252288a18.017156 18.017156 0 0 1 9.231931 33.651878l-49.137698 13.103386a16.379233 16.379233 0 0 1-4.615966 1.786826zM538.33803 974.117791a17.719352 17.719352 0 0 1-17.272646-13.252288l-13.252288-49.137698a18.017156 18.017156 0 0 1 34.843095-9.380834l13.103386 49.137699a17.868254 17.868254 0 0 1-17.421547 22.633121z" fill="#4A89DC" p-id="8549"></path><path d="M525.234644 924.980093a18.017156 18.017156 0 0 1-4.764868-35.289802l49.2866-13.252288a18.017156 18.017156 0 1 1 9.231931 34.843095l-49.137698 13.103386a16.379233 16.379233 0 0 1-4.615965 0.595609zM322.578864 951.931376a17.868254 17.868254 0 0 1-8.934127-33.502976L562.906879 774.291152A18.017156 18.017156 0 0 1 581.519643 805.709498l-249.85775 143.839444a18.463862 18.463862 0 0 1-9.083029 2.382434z" fill="#4A89DC" p-id="8550"></path><path d="M369.334128 924.980093a16.379233 16.379233 0 0 1-4.615965 0l-49.137699-13.103386a18.017156 18.017156 0 1 1 9.231932-34.843095l49.137698 13.252288a17.868254 17.868254 0 0 1-4.615966 35.289801z" fill="#4A89DC" p-id="8551"></path><path d="M356.230742 974.117791a17.421548 17.421548 0 0 1-4.764868 0 18.017156 18.017156 0 0 1-12.65668-22.037513l13.103387-49.137698a18.017156 18.017156 0 0 1 34.843095 9.380833L373.056681 960.865503a17.719352 17.719352 0 0 1-16.825939 13.252288zM574.372342 848.74221a16.379233 16.379233 0 0 1-4.615966 0l-49.2866-14.890212a18.017156 18.017156 0 0 1 9.380833-34.843095l49.137698 13.252288a17.868254 17.868254 0 0 1-4.615965 36.481019z" fill="#4A89DC" p-id="8552"></path><path d="M525.234644 835.043215a17.421548 17.421548 0 0 1-4.764868 0 18.017156 18.017156 0 0 1-12.65668-22.037513l13.252288-49.137698a18.017156 18.017156 0 1 1 34.694193 9.231931l-13.103386 49.137698a18.166058 18.166058 0 0 1-17.421547 12.805582z" fill="#4A89DC" p-id="8553"></path><path d="M447.507739 1024a18.017156 18.017156 0 0 1-18.017156-18.017156V718.006152a18.017156 18.017156 0 0 1 36.034312 0v287.976692A18.017156 18.017156 0 0 1 447.507739 1024z" fill="#5D9CEC" p-id="8554"></path><path d="M447.507739 790.074776a18.017156 18.017156 0 0 1-12.954484-30.673836l36.034312-36.034312a18.017156 18.017156 0 0 1 25.31336 25.462262l-35.88541 35.88541a18.017156 18.017156 0 0 1-12.507778 5.360476z" fill="#5D9CEC" p-id="8555"></path><path d="M447.507739 790.074776a17.719352 17.719352 0 0 1-12.65668-5.360476l-36.034312-35.88541a18.017156 18.017156 0 0 1 25.462262-25.462262l35.736508 36.034312a18.017156 18.017156 0 0 1-12.507778 30.673836zM411.324525 1005.982844a18.463862 18.463862 0 0 1-12.805582-5.211574 18.017156 18.017156 0 0 1 0-25.462262l36.034312-36.034312a18.017156 18.017156 0 1 1 25.462262 25.462262l-36.034312 36.034312a17.868254 17.868254 0 0 1-12.65668 5.211574z" fill="#5D9CEC" p-id="8556"></path><path d="M483.244247 1005.982844a17.868254 17.868254 0 0 1-12.65668-5.211574l-36.034312-36.034312a18.017156 18.017156 0 0 1 25.462262-25.462262l35.88541 36.034312a18.017156 18.017156 0 0 1-12.65668 30.673836z" fill="#5D9CEC" p-id="8557"></path><path d="M897.93664 951.931376a17.421548 17.421548 0 0 1-8.934127-2.382434L639.591469 805.709498a18.166058 18.166058 0 0 1-6.551694-24.717751 18.017156 18.017156 0 0 1 24.56885-6.700595l249.262142 143.988346a17.868254 17.868254 0 0 1-8.934127 33.502976z" fill="#4A89DC" p-id="8558"></path><path d="M695.28086 835.043215a17.868254 17.868254 0 0 1-17.272646-13.401191l-13.252288-49.137698a18.017156 18.017156 0 1 1 34.843095-9.231931l13.103386 49.137698A18.017156 18.017156 0 0 1 700.641336 833.851998a17.421548 17.421548 0 0 1-5.360476 1.191217z" fill="#4A89DC" p-id="8559"></path><path d="M646.143162 848.74221a18.017156 18.017156 0 0 1-5.062672-35.88541l49.137698-13.252289A18.017156 18.017156 0 0 1 700.641336 833.851998l-49.137698 13.103386a17.421548 17.421548 0 0 1-5.360476 1.786826zM864.433664 974.117791a17.719352 17.719352 0 0 1-17.272646-13.252288l-13.252288-49.137698a18.017156 18.017156 0 0 1 34.843095-9.380834l13.103386 49.137699a17.868254 17.868254 0 0 1-12.65668 22.037513 17.421548 17.421548 0 0 1-4.764867 0.595608z" fill="#4A89DC" p-id="8560"></path><path d="M851.181375 924.980093a17.868254 17.868254 0 0 1-4.615965-35.289802l49.137698-13.252288a18.017156 18.017156 0 0 1 9.231931 34.843095l-49.137698 13.103386a16.379233 16.379233 0 0 1-4.615966 0.595609zM648.674498 951.931376a18.017156 18.017156 0 0 1-9.083029-33.502976L889.002513 774.291152a18.017156 18.017156 0 0 1 24.568849 6.551693 18.166058 18.166058 0 0 1-6.700595 24.717751l-249.262142 143.988346a17.868254 17.868254 0 0 1-8.934127 2.382434z" fill="#4A89DC" p-id="8561"></path><path d="M695.429762 924.980093a17.421548 17.421548 0 0 1-4.764868 0L641.08049 911.281098a18.017156 18.017156 0 0 1 9.380833-34.843095l49.137698 13.252288a18.017156 18.017156 0 0 1 12.65668 22.037514 17.719352 17.719352 0 0 1-16.825939 13.252288z" fill="#4A89DC" p-id="8562"></path><path d="M682.177474 974.117791a16.379233 16.379233 0 0 1-4.615966 0 18.017156 18.017156 0 0 1-12.805582-22.037513l13.252288-49.137698a18.017156 18.017156 0 0 1 34.694193 9.380833l-13.103386 49.137698a18.166058 18.166058 0 0 1-17.421547 12.65668zM900.319074 848.74221a16.379233 16.379233 0 0 1-4.615966 0l-49.137698-14.890212a18.017156 18.017156 0 0 1 9.231931-34.843095l49.137698 13.252288a17.868254 17.868254 0 0 1-4.615965 36.481019z" fill="#4A89DC" p-id="8563"></path><path d="M851.181375 835.043215a16.379233 16.379233 0 0 1-4.615965 0 18.017156 18.017156 0 0 1-12.805582-22.037513l13.252288-49.137698a18.017156 18.017156 0 1 1 34.694193 9.231931l-13.103386 49.137698a18.166058 18.166058 0 0 1-17.421548 12.805582z" fill="#4A89DC" p-id="8564"></path><path d="M773.305569 1024a18.017156 18.017156 0 0 1-18.017156-18.017156V718.006152a18.017156 18.017156 0 0 1 36.034312 0v287.976692a18.017156 18.017156 0 0 1-18.017156 18.017156z" fill="#5D9CEC" p-id="8565"></path><path d="M773.305569 790.074776A18.017156 18.017156 0 0 1 760.202182 759.40094l36.034312-36.034312a18.017156 18.017156 0 0 1 25.462262 25.462262l-35.736508 35.88541a17.421548 17.421548 0 0 1-12.656679 5.360476z" fill="#5D9CEC" p-id="8566"></path><path d="M773.305569 790.074776a18.017156 18.017156 0 0 1-13.103387-5.360476l-35.885409-35.88541a18.017156 18.017156 0 0 1 25.313359-25.462262L785.962248 759.40094a17.868254 17.868254 0 0 1 0 25.31336 17.421548 17.421548 0 0 1-12.656679 5.360476zM737.271257 1005.982844a18.017156 18.017156 0 0 1-12.65668-30.673836L760.202182 939.274696a18.017156 18.017156 0 0 1 25.462262 25.462262l-36.034312 36.034312a17.868254 17.868254 0 0 1-12.358875 5.211574z" fill="#5D9CEC" p-id="8567"></path><path d="M809.190979 1005.982844a18.463862 18.463862 0 0 1-12.65668-5.211574L760.202182 964.736958a18.017156 18.017156 0 0 1 25.462262-25.462262l36.034312 36.034312a18.017156 18.017156 0 0 1 0 25.462262 18.463862 18.463862 0 0 1-12.507777 5.211574z" fill="#5D9CEC" p-id="8568"></path></svg>