<?xml version="1.0" standalone="no"?><!DOCTYPE svg PUBLIC "-//W3C//DTD SVG 1.1//EN" "http://www.w3.org/Graphics/SVG/1.1/DTD/svg11.dtd"><svg t="1765544654423" class="icon" viewBox="0 0 1230 1024" version="1.1" xmlns="http://www.w3.org/2000/svg" p-id="64286" xmlns:xlink="http://www.w3.org/1999/xlink" width="240.234375" height="200"><path d="M733.453245 767.444284l27.044862 31.027496-129.018813 112.995658-27.137482-30.934876z m-213.765558 17.319826l27.785818 30.842258-227.473227 200.798842-27.230101-30.842258z m558.309697-401.412446h-18.523879a195.334298 195.334298 0 0 0-20.561505-144.115774 202.929088 202.929088 0 0 0-120.40521-95.120116A189.869754 189.869754 0 0 0 787.265111 154.396527L210.987253 661.209841a7.780029 7.780029 0 0 0 0.555717 10.929088 8.335745 8.335745 0 0 0 4.53835 1.945007h869.603473a144.115774 144.115774 0 0 0 144.949349-143.282199 158.286541 158.286541 0 0 0-0.833575-16.208394 151.803184 151.803184 0 0 0-151.803183-131.241679z" fill="#A1C6E6" p-id="64287"></path><path d="M473.377991 0a247.015919 247.015919 0 0 0-244.422576 223.861071v46.309696h-23.154848a250.072359 250.072359 0 0 0-61.684515 2.500724h-2.593343A182.83068 182.83068 0 0 0 0.000278 432.254703a174.958032 174.958032 0 0 0 120.960926 166.714906 17.875543 17.875543 0 0 0 17.968162-4.630969l529.968162-468.283647a18.523878 18.523878 0 0 0 2.593343-23.154848A247.015919 247.015919 0 0 0 473.377991 0z m-166.714906 766.703329h-49.366136L231.548758 810.419682l25.748191 41.12301h48.903039l23.154848-41.12301z m648.335746-23.154849h-36.492041l-18.523878 30.842258 18.523878 30.842258h36.028944l17.968162-30.842258-17.968162-30.842258zM825.887398 921.007236H764.110263L735.768729 972.503618l28.341534 51.496382h61.777135l27.785818-51.496382z" fill="#CFDBE6" p-id="64288"></path></svg>