<?xml version="1.0" standalone="no"?><!DOCTYPE svg PUBLIC "-//W3C//DTD SVG 1.1//EN" "http://www.w3.org/Graphics/SVG/1.1/DTD/svg11.dtd"><svg t="1765543048342" class="icon" viewBox="0 0 1024 1024" version="1.1" xmlns="http://www.w3.org/2000/svg" p-id="1820" xmlns:xlink="http://www.w3.org/1999/xlink" width="200" height="200"><path d="M700.243225 0.000117a312.843321 312.843321 0 0 0-229.012551 99.402687 167.193212 167.193212 0 0 0-293.524778 109.588828v4.214955a208.991515 208.991515 0 0 0 41.681221 413.885157h480.856108a313.545814 313.545814 0 0 0 0-627.091627z" fill="#F2F2F2" p-id="1821"></path><path d="M900.336502 71.888515A313.545814 313.545814 0 0 1 658.444922 585.410524H177.705896a208.054858 208.054858 0 0 1-125.394909-41.915386 208.874433 208.874433 0 0 0 167.193212 83.596606h480.739026A313.545814 313.545814 0 0 0 900.336502 71.888515z" fill="#E2E2E2" p-id="1822"></path><path d="M444.301795 737.617229a13.581521 13.581521 0 0 1-6.673678-1.756231l-185.223853-107.013022a13.347357 13.347357 0 0 1 13.464439-23.416417l185.106771 106.895941a13.347357 13.347357 0 0 1-6.673679 25.289729z" fill="#4A89DC" p-id="1823"></path><path d="M293.851321 650.625243a13.230275 13.230275 0 0 1-12.879029-9.834895l-9.834895-36.529609a13.347357 13.347357 0 1 1 25.87514-7.142007l9.717813 36.529609a13.347357 13.347357 0 0 1-9.366567 16.391491 17.913558 17.913558 0 0 1-3.512462 0.585411z" fill="#4A89DC" p-id="1824"></path><path d="M257.321712 660.460138a13.464439 13.464439 0 0 1-12.879029-9.951977 13.230275 13.230275 0 0 1 9.483648-16.27441l36.412527-9.834894a13.464439 13.464439 0 0 1 7.024925 25.87514l-36.529609 9.717812a11.708208 11.708208 0 0 1-3.512462 0.468329zM419.363312 754.008721a13.230275 13.230275 0 0 1-12.879029-9.951977L396.883552 707.527134a13.347357 13.347357 0 0 1 25.87514-6.907843L432.008177 737.617229a13.464439 13.464439 0 0 1-9.366567 16.391492 12.644865 12.644865 0 0 1-3.278298 0z" fill="#4A89DC" p-id="1825"></path><path d="M409.528417 717.479111a13.347357 13.347357 0 0 1-3.39538-26.694714l36.529609-9.834895a13.347357 13.347357 0 0 1 6.907843 25.87514l-36.529609 9.717813a11.708208 11.708208 0 0 1-3.512463 0.936656zM259.195025 737.617229a13.113193 13.113193 0 0 1-11.708208-6.673678 13.347357 13.347357 0 0 1 4.800365-18.264805l185.223853-106.89594a13.347357 13.347357 0 1 1 13.347357 23.416416l-184.989689 106.544694a13.815686 13.815686 0 0 1-6.673678 1.873313z" fill="#4A89DC" p-id="1826"></path><path d="M293.851321 717.479111a11.708208 11.708208 0 0 1-3.512463 0l-36.412527-9.717813a13.347357 13.347357 0 0 1 6.907843-25.87514l36.529609 8.898239a13.230275 13.230275 0 0 1 9.366567 16.274409 13.113193 13.113193 0 0 1-12.879029 10.420305z" fill="#4A89DC" p-id="1827"></path><path d="M284.133508 754.008721a11.708208 11.708208 0 0 1-3.512462 0 13.464439 13.464439 0 0 1-9.483649-16.391492l9.834895-36.529609a13.347357 13.347357 0 0 1 25.758058 6.907843l-9.717813 36.529609a13.464439 13.464439 0 0 1-12.879029 9.483649zM446.058027 660.460138a11.708208 11.708208 0 0 1-3.395381 0l-36.529609-9.717813a13.347357 13.347357 0 1 1 6.907843-25.87514l36.529609 9.834895a13.347357 13.347357 0 0 1-3.512462 26.226386z" fill="#4A89DC" p-id="1828"></path><path d="M409.528417 650.625243h-3.39538a13.464439 13.464439 0 0 1-9.483649-16.391492l9.834895-37.115019a13.347357 13.347357 0 1 1 25.758058 6.907842l-9.717813 36.52961a13.347357 13.347357 0 0 1-12.996111 10.069059z" fill="#4A89DC" p-id="1829"></path><path d="M351.689869 791.006658A13.347357 13.347357 0 0 1 338.342512 777.659301V563.867421a13.347357 13.347357 0 0 1 26.694714 0v213.79188a13.347357 13.347357 0 0 1-13.347357 13.347357z" fill="#5D9CEC" p-id="1830"></path><path d="M351.689869 617.25685a13.347357 13.347357 0 0 1-9.483649-22.831006l26.811797-26.694715a13.464439 13.464439 0 0 1 18.850215 0 13.230275 13.230275 0 0 1 0 18.850215L361.758928 613.393141a13.464439 13.464439 0 0 1-10.069059 3.863709z" fill="#5D9CEC" p-id="1831"></path><path d="M351.689869 617.25685a13.698604 13.698604 0 0 1-9.483649-3.863709l-26.694714-26.811797a13.464439 13.464439 0 0 1 0-18.850215 13.581521 13.581521 0 0 1 18.967297 0L361.758928 594.425844a13.347357 13.347357 0 0 1-9.483649 22.831006zM324.995155 777.659301a13.464439 13.464439 0 0 1-9.483649-23.416416l26.694714-26.694715A13.347357 13.347357 0 1 1 361.758928 746.983796l-26.694714 26.694714a13.347357 13.347357 0 0 1-10.069059 3.980791z" fill="#5D9CEC" p-id="1832"></path><path d="M378.384584 777.659301a12.879029 12.879029 0 0 1-9.366567-3.980791l-26.811797-26.694714A13.347357 13.347357 0 0 1 361.758928 728.133581l26.694715 26.694714a13.230275 13.230275 0 0 1 0 18.850215 12.879029 12.879029 0 0 1-10.069059 3.980791z" fill="#5D9CEC" p-id="1833"></path><path d="M686.310457 737.617229a13.815686 13.815686 0 0 1-6.673678-1.756231l-185.106771-107.013022a13.347357 13.347357 0 0 1 13.347357-23.416417l185.106771 106.895941a13.347357 13.347357 0 0 1 4.917447 18.264804 13.113193 13.113193 0 0 1-11.591126 7.024925z" fill="#4A89DC" p-id="1834"></path><path d="M535.859983 650.625243a13.347357 13.347357 0 0 1-12.879029-9.834895l-9.717813-36.529609a13.347357 13.347357 0 1 1 25.758058-6.907843l10.069059 36.529609a13.464439 13.464439 0 0 1-9.483648 16.391492 17.913558 17.913558 0 0 1-3.746627 0.351246z" fill="#4A89DC" p-id="1835"></path><path d="M499.447456 660.460138a13.347357 13.347357 0 0 1-3.512463-26.226387l36.52961-9.834894a13.347357 13.347357 0 1 1 6.907842 25.87514l-36.529609 9.717812a11.708208 11.708208 0 0 1-3.39538 0.468329zM661.371974 754.008721a13.464439 13.464439 0 0 1-12.879029-9.951977l-9.717813-36.52961a13.230275 13.230275 0 0 1 9.366567-16.274409 13.347357 13.347357 0 0 1 16.391491 9.366566l9.717813 36.997938a13.230275 13.230275 0 0 1-9.366567 16.391492 11.708208 11.708208 0 0 1-3.512462 0z" fill="#4A89DC" p-id="1836"></path><path d="M651.654161 717.479111a13.347357 13.347357 0 0 1-3.512462-26.226386l36.529609-9.834895a13.347357 13.347357 0 0 1 6.907843 25.87514l-36.529609 9.717813a11.708208 11.708208 0 0 1-3.395381 0.468328zM501.203687 737.617229a13.347357 13.347357 0 0 1-6.673679-24.938483l185.106771-106.89594a13.347357 13.347357 0 0 1 13.347357 23.416416l-185.106771 106.544694a13.815686 13.815686 0 0 1-6.673678 1.873313z" fill="#4A89DC" p-id="1837"></path><path d="M535.977065 717.479111a11.708208 11.708208 0 0 1-3.512462 0l-36.52961-9.717813a13.347357 13.347357 0 0 1 6.907843-25.87514l36.529609 9.834895a13.347357 13.347357 0 0 1-3.39538 26.226387z" fill="#4A89DC" p-id="1838"></path><path d="M525.673842 754.008721a11.708208 11.708208 0 0 1-3.512463 0 13.230275 13.230275 0 0 1-9.366566-16.391492l9.717813-36.529609a13.347357 13.347357 0 0 1 25.87514 6.907843l-9.834895 36.529609a13.347357 13.347357 0 0 1-12.879029 9.483649zM688.183771 660.460138a11.708208 11.708208 0 0 1-3.512463 0l-36.529609-9.717813a13.347357 13.347357 0 0 1 6.907843-25.87514l36.529609 9.834895a13.230275 13.230275 0 0 1 9.717813 15.806081 13.464439 13.464439 0 0 1-13.113193 9.951977z" fill="#4A89DC" p-id="1839"></path><path d="M651.654161 650.625243a17.913558 17.913558 0 0 1-3.512462 0 13.347357 13.347357 0 0 1-9.366567-16.391492l9.717813-37.115019a13.347357 13.347357 0 1 1 25.758058 6.907842l-9.717813 36.52961a13.347357 13.347357 0 0 1-12.879029 10.069059z" fill="#4A89DC" p-id="1840"></path><path d="M593.815613 791.006658a13.464439 13.464439 0 0 1-13.464439-13.347357V563.867421a13.464439 13.464439 0 0 1 26.811796 0v213.79188a13.347357 13.347357 0 0 1-13.347357 13.347357z" fill="#5D9CEC" p-id="1841"></path><path d="M593.815613 617.25685a13.347357 13.347357 0 0 1-9.600731-22.831006l26.694715-26.694715a13.581521 13.581521 0 0 1 18.967297 0 13.464439 13.464439 0 0 1 0 18.850215l-26.811796 26.811797a13.230275 13.230275 0 0 1-9.249485 3.863709z" fill="#5D9CEC" p-id="1842"></path><path d="M593.815613 617.25685a13.230275 13.230275 0 0 1-9.483648-3.863709l-26.694715-26.811797a13.230275 13.230275 0 0 1 0-18.850215 13.464439 13.464439 0 0 1 18.850215 0l26.694715 26.694715a13.347357 13.347357 0 0 1 0 18.967297 13.230275 13.230275 0 0 1-9.366567 3.863709zM567.003817 777.659301a12.879029 12.879029 0 0 1-9.366567-3.980791 13.230275 13.230275 0 0 1 0-18.850215L584.214882 728.133581a13.347357 13.347357 0 0 1 18.850216 18.850215l-26.694715 26.694714a12.879029 12.879029 0 0 1-9.366566 3.980791z" fill="#5D9CEC" p-id="1843"></path><path d="M620.510328 777.659301a13.113193 13.113193 0 0 1-9.483649-3.980791L584.214882 746.983796a13.347357 13.347357 0 0 1 18.850216-18.850215l26.811796 26.694714a13.464439 13.464439 0 0 1-9.483648 23.416416z" fill="#5D9CEC" p-id="1844"></path><path d="M472.752741 1024a19.201461 19.201461 0 0 1-18.733133-15.103588 19.66979 19.66979 0 0 1-22.011431-3.980791 18.733133 18.733133 0 0 1-5.61994-13.46444 19.318543 19.318543 0 0 1 5.61994-13.698603l21.074774-21.074775v-25.523893L432.008177 943.915856l-7.727418 28.802192a19.435625 19.435625 0 0 1-23.416416 13.581522 19.201461 19.201461 0 0 1-14.166932-16.625656 19.552708 19.552708 0 0 1-22.362677-8.781156 19.201461 19.201461 0 0 1 3.629544-23.416416 19.201461 19.201461 0 0 1 16.157328-34.187968l28.802192 7.727418 22.128513-12.761947-22.831006-13.113193-28.802192 7.610335a18.030641 18.030641 0 0 1-5.034529 0.702492A19.318543 19.318543 0 0 1 361.758928 864.651287a19.552708 19.552708 0 0 1 5.502858-6.088268 19.552708 19.552708 0 0 1-3.746627-23.416416 19.318543 19.318543 0 0 1 22.47976-8.664074 19.201461 19.201461 0 0 1 37.70043-3.161216l8.312828 28.450945 22.128513 12.761947v-25.523893L432.008177 817.935537a19.201461 19.201461 0 0 1-5.61994-13.581521 19.201461 19.201461 0 0 1 19.201461-19.201462 20.138118 20.138118 0 0 1 7.961582 1.639149 19.318543 19.318543 0 0 1 37.583348 0 19.66979 19.66979 0 0 1 21.543103 3.980791 19.084379 19.084379 0 0 1 5.61994 13.581522 19.201461 19.201461 0 0 1-5.61994 13.581521l-21.074775 21.074775v25.523893L513.965634 851.772258l7.727417-28.802192a19.084379 19.084379 0 0 1 8.898238-11.708208 19.318543 19.318543 0 0 1 14.63526-1.873313 18.967297 18.967297 0 0 1 11.708209 9.01532 18.147723 18.147723 0 0 1 2.458723 7.727418 18.147723 18.147723 0 0 1 10.888634 0 18.850215 18.850215 0 0 1 11.708208 8.898238 19.318543 19.318543 0 0 1-3.629545 23.416416 19.318543 19.318543 0 0 1 7.376172 20.606446 19.66979 19.66979 0 0 1-23.416417 13.581522l-28.802192-7.610335-22.128513 12.761946 22.128513 12.761947 28.802192-7.727417a19.318543 19.318543 0 0 1 23.416417 13.581521A19.318543 19.318543 0 0 1 578.360778 936.656767a19.318543 19.318543 0 0 1 3.629545 23.416417 19.786872 19.786872 0 0 1-22.47976 8.781156 18.147723 18.147723 0 0 1-2.458723 7.610335 18.967297 18.967297 0 0 1-11.708208 9.01532 19.318543 19.318543 0 0 1-23.416417-13.581521L513.965634 943.915856l-22.128514-12.761946v25.523893l21.074775 21.074775a19.318543 19.318543 0 0 1 0 27.280125 19.903954 19.903954 0 0 1-21.543103 3.863709 19.318543 19.318543 0 0 1-18.616051 15.103588z m-7.493253-41.212893v22.011432a7.610335 7.610335 0 0 0 15.103588 0v-22.011432l13.815686 13.932768a7.844499 7.844499 0 0 0 10.654469 0 7.493253 7.493253 0 0 0 0-10.654469l-24.470155-24.470155V910.898709l43.905781 25.758058 8.898238 33.485476a7.610335 7.610335 0 0 0 9.249484 5.385775 7.493253 7.493253 0 0 0 5.268694-9.249484l-5.034529-18.967297 18.967297 11.005715a7.610335 7.610335 0 0 0 10.186141-2.80997 7.376171 7.376171 0 0 0-2.692888-10.186141l-18.967297-11.005715 18.967297-5.151612a7.493253 7.493253 0 0 0 5.268694-9.132402 7.610335 7.610335 0 0 0-9.132403-5.385776l-33.485475 9.01532-43.90578-25.289729 43.90578-25.406812 33.485475 9.01532a7.610335 7.610335 0 0 0 9.132403-5.385775 7.493253 7.493253 0 0 0-5.268694-9.132403l-18.967297-5.151611 18.967297-10.888634a7.610335 7.610335 0 0 0-1.756231-13.815685 7.610335 7.610335 0 0 0-5.737022 0.819574l-19.084379 11.005716 5.151611-19.084379a7.727417 7.727417 0 0 0-0.702492-5.61994 7.610335 7.610335 0 0 0-4.566202-3.512463 7.024925 7.024925 0 0 0-5.737022 0.702493 7.610335 7.610335 0 0 0-3.512462 4.566201l-8.898238 33.485475-43.905781 25.406812v-51.16487l24.470155-24.587237a7.376171 7.376171 0 0 0 0-10.537387 7.727417 7.727417 0 0 0-10.654469 0l-13.815686 13.932768v-22.011432a7.610335 7.610335 0 0 0-15.103588 0v21.894349l-13.932768-13.815685a7.024925 7.024925 0 0 0-5.268693-2.22456 7.024925 7.024925 0 0 0-5.268694 2.22456 7.376171 7.376171 0 0 0 0 10.537387l24.470155 24.587237v50.579459l-43.905781-25.289729-8.898238-33.485475a7.610335 7.610335 0 0 0-9.249484-5.268694 7.493253 7.493253 0 0 0-5.268694 9.132402l5.03453 18.967297-18.967298-10.888633a7.493253 7.493253 0 1 0-7.493253 12.996111l18.967297 10.888633-18.967297 5.151612a6.907843 6.907843 0 0 0-4.566201 3.512462 7.376171 7.376171 0 0 0-0.819574 5.61994 7.844499 7.844499 0 0 0 9.249484 5.385776l33.485475-9.01532 43.905781 25.406811-43.905781 25.28973-33.485475-9.01532a7.493253 7.493253 0 0 0-9.132402 5.385775 7.376171 7.376171 0 0 0 5.268693 9.132403l18.967297 5.151611-18.967297 11.005716a7.493253 7.493253 0 0 0-2.80997 10.186141 7.727417 7.727417 0 0 0 10.303223 2.80997l18.967298-11.005716-5.03453 18.967298a7.493253 7.493253 0 1 0 14.518178 3.863708l8.898238-33.017147 43.905781-25.289729v50.696541l-24.470155 24.470155a7.493253 7.493253 0 0 0 0 10.654469 7.610335 7.610335 0 0 0 10.537387 0z" fill="#00A0E9" p-id="1845"></path></svg>