<?xml version="1.0" standalone="no"?><!DOCTYPE svg PUBLIC "-//W3C//DTD SVG 1.1//EN" "http://www.w3.org/Graphics/SVG/1.1/DTD/svg11.dtd"><svg t="1765544793977" class="icon" viewBox="0 0 1024 1024" version="1.1" xmlns="http://www.w3.org/2000/svg" p-id="89669" xmlns:xlink="http://www.w3.org/1999/xlink" width="200" height="200"><path d="M686.933333 106.666667a286.805333 286.805333 0 0 0-210.133333 91.221333 153.386667 153.386667 0 0 0-269.226667 104.362667 191.786667 191.786667 0 0 0 38.272 379.648H686.933333a287.616 287.616 0 0 0 0-575.232z" fill="#F2F2F2" p-id="89670"></path><path d="M870.229333 172.501333a287.573333 287.573333 0 0 1-221.653333 470.912H207.573333a190.976 190.976 0 0 1-115.072-38.314666 191.445333 191.445333 0 0 0 153.386667 76.672H686.933333a287.616 287.616 0 0 0 183.296-509.269334z" fill="#E2E2E2" p-id="89671"></path><path d="M371.669333 722.688q18.090667 11.306667 6.826667 29.397333l-27.861333 44.501334q-11.264 18.090667-29.354667 6.784-18.133333-11.306667-6.826667-29.397334l27.818667-44.501333q11.306667-18.090667 29.44-6.826667z" fill="#5BBBFF" p-id="89672"></path><path d="M371.669333 724.864q18.090667 11.306667 6.826667 29.397333l-27.861333 44.501334q-11.264 18.090667-29.354667 6.784-18.133333-11.306667-6.826667-29.44l27.818667-44.458667q11.306667-18.090667 29.44-6.826667zM317.568 828.16q18.090667 11.306667 6.784 29.44l-27.818667 44.501333q-11.306667 18.090667-29.397333 6.784-18.090667-11.306667-6.826667-29.44l27.861334-44.458666q11.306667-18.090667 29.397333-6.826667zM554.325333 722.645333q18.090667 11.306667 6.826667 29.44L533.333333 796.586667q-11.306667 18.090667-29.44 6.741333-18.048-11.306667-6.784-29.312l27.861334-44.501333q11.306667-18.090667 29.354666-6.826667z" fill="#5BBBFF" p-id="89673"></path><path d="M555.093333 724.821333q18.133333 11.306667 6.826667 29.44l-27.776 44.501334q-11.306667 18.090667-29.44 6.741333-18.090667-11.306667-6.826667-29.354667l27.861334-44.501333q11.306667-18.090667 29.397333-6.826667zM500.992 828.16q18.090667 11.306667 6.826667 29.44l-27.818667 44.501333q-11.306667 18.090667-29.44 6.741334-18.048-11.306667-6.784-29.354667l27.861333-44.501333q11.306667-18.090667 29.354667-6.826667zM741.546667 720.896q18.773333 10.112 8.618666 28.842667L725.333333 795.946667q-10.112 18.773333-28.885333 8.661333-18.773333-10.112-8.661333-28.757333l24.874666-46.208q10.112-18.773333 28.885334-8.746667zM687.402667 824.234667q18.773333 10.112 8.618666 28.842666l-24.832 46.208q-10.112 18.773333-28.885333 8.661334-18.773333-10.112-8.661333-28.757334l24.874666-46.208q10.112-18.773333 28.885334-8.746666z" fill="#5BBBFF" p-id="89674"></path><path d="M293.674667 737.962667q2.090667-3.413333 2.773333-7.296 0.682667-3.925333-0.128-7.850667-0.426667-2.048-1.28-4.010667-0.768-1.92-1.962667-3.712-1.194667-1.706667-2.688-3.242666-1.493333-1.493333-3.242666-2.688-1.749333-1.194667-3.712-2.005334-1.962667-0.853333-4.010667-1.28-2.090667-0.426667-4.181333-0.469333-2.133333-0.042667-4.181334 0.341333-4.437333 0.810667-8.106666 3.285334-3.669333 2.56-5.973334 6.314666l-65.237333 106.453334q-2.090667 3.413333-2.773333 7.338666-0.64 3.882667 0.128 7.808 0.426667 2.048 1.28 4.010667 0.768 1.962667 1.962666 3.712 1.194667 1.749333 2.688 3.242667 1.493333 1.493333 3.242667 2.688 1.749333 1.194667 3.712 2.048 1.962667 0.853333 4.010667 1.28 2.090667 0.426667 4.181333 0.426666 2.133333 0.042667 4.181333-0.341333 4.437333-0.768 8.106667-3.285333 3.669333-2.517333 5.973333-6.314667l65.28-106.453333z" fill="#5BBBFF" p-id="89675"></path><path d="M294.186667 738.346667q2.048-3.370667 2.730666-7.253334 0.682667-3.925333-0.128-7.850666-0.426667-2.048-1.194666-4.010667-0.853333-1.962667-2.005334-3.712-1.194667-1.749333-2.688-3.242667-1.493333-1.493333-3.242666-2.688-1.792-1.194667-3.712-2.048-1.962667-0.853333-4.053334-1.28-2.048-0.426667-4.181333-0.426666-2.133333-0.042667-4.181333 0.341333-4.394667 0.768-8.106667 3.285333-3.626667 2.517333-5.973333 6.314667L192.256 822.186667q-2.090667 3.413333-2.773333 7.296-0.682667 3.925333 0.128 7.850666 0.426667 2.048 1.28 4.010667 0.768 1.92 1.962666 3.712 1.152 1.706667 2.688 3.242667 1.493333 1.493333 3.242667 2.688 1.749333 1.194667 3.712 2.005333 1.962667 0.853333 4.010667 1.28 2.090667 0.426667 4.181333 0.469333 2.133333 0.042667 4.181333-0.341333 4.437333-0.810667 8.106667-3.285333 3.669333-2.56 5.973333-6.314667l65.237334-106.453333zM478.122667 741.376q3.157333-5.76 2.474666-12.373333-0.213333-2.048-0.853333-4.096-0.597333-2.005333-1.621333-3.84-1.024-1.877333-2.346667-3.498667-1.365333-1.664-2.986667-2.986667-1.621333-1.365333-3.498666-2.389333-1.877333-0.981333-3.84-1.621333-2.048-0.64-4.138667-0.853334-2.133333-0.256-4.224-0.042666-5.205333 0.426667-9.6 3.285333-4.394667 2.816-6.912 7.424L386.56 818.304q-3.157333 5.76-2.474667 12.373333 0.213333 2.090667 0.853334 4.096t1.621333 3.84q1.024 1.92 2.346667 3.541334 1.365333 1.621333 2.986666 2.986666 1.621333 1.322667 3.498667 2.346667 1.877333 1.024 3.882667 1.664 2.005333 0.597333 4.096 0.853333 2.133333 0.213333 4.224 0 5.248-0.426667 9.6-3.242666 4.394667-2.858667 6.912-7.424l54.016-97.962667z" fill="#5BBBFF" p-id="89676"></path><path d="M479.317333 743.04q3.157333-5.76 2.474667-12.373333-0.213333-2.048-0.853333-4.053334-0.597333-2.048-1.621334-3.882666-0.981333-1.877333-2.346666-3.498667-1.322667-1.664-2.986667-2.986667-1.621333-1.365333-3.498667-2.389333-1.834667-0.981333-3.84-1.621333-2.048-0.64-4.138666-0.853334-2.133333-0.256-4.181334-0.042666-5.248 0.426667-9.642666 3.285333-4.394667 2.858667-6.912 7.424l-53.973334 97.92q-3.2 5.76-2.474666 12.373333 0.213333 2.090667 0.853333 4.096 0.597333 2.005333 1.578667 3.882667 1.024 1.877333 2.389333 3.498667 1.322667 1.621333 2.986667 2.986666 1.621333 1.365333 3.456 2.346667 1.877333 1.024 3.882666 1.664 2.048 0.597333 4.138667 0.853333 2.090667 0.213333 4.181333 0.042667 5.248-0.426667 9.642667-3.285333 4.352-2.858667 6.912-7.424l53.973333-97.92zM657.28 740.992q3.072-5.76 2.304-12.373333-0.256-2.090667-0.896-4.096-0.64-2.005333-1.706667-3.84-1.024-1.834667-2.389333-3.456-1.365333-1.621333-2.986667-2.986667-1.706667-1.28-3.541333-2.304-1.877333-0.981333-3.925333-1.578667-2.005333-0.597333-4.138667-0.853333-2.090667-0.170667-4.181333 0-5.248 0.554667-9.6 3.413333-4.352 2.944-6.826667 7.509334l-52.608 98.645333q-3.072 5.802667-2.304 12.373333 0.256 2.090667 0.896 4.096 0.64 2.005333 1.706667 3.84 1.024 1.877333 2.389333 3.498667 1.365333 1.621333 2.986667 2.944 1.706667 1.28 3.541333 2.304 1.877333 0.981333 3.925333 1.621333 2.005333 0.597333 4.138667 0.810667 2.090667 0.170667 4.181333 0 5.248-0.554667 9.6-3.413333 4.352-2.901333 6.826667-7.509334l52.608-98.645333z" fill="#5BBBFF" p-id="89677"></path><path d="M658.56 742.101333q3.114667-5.802667 2.304-12.373333-0.256-2.133333-0.853333-4.096-0.682667-2.005333-1.706667-3.84-1.024-1.877333-2.432-3.498667-1.365333-1.621333-2.986667-2.944-1.706667-1.322667-3.541333-2.304-1.877333-0.981333-3.925333-1.621333-2.005333-0.597333-4.096-0.810667-2.133333-0.213333-4.224 0-5.205333 0.512-9.557334 3.413334-4.352 2.901333-6.826666 7.509333l-52.650667 98.602667q-3.072 5.802667-2.304 12.373333 0.256 2.133333 0.896 4.096 0.682667 2.005333 1.706667 3.84 1.024 1.877333 2.389333 3.498667 1.365333 1.621333 2.986667 2.986666 1.706667 1.28 3.584 2.261334 1.877333 1.024 3.882666 1.621333 2.048 0.597333 4.138667 0.810667 2.090667 0.213333 4.181333 0 5.248-0.512 9.6-3.413334 4.352-2.901333 6.826667-7.509333l52.608-98.602667z" fill="#5BBBFF" p-id="89678"></path><path d="M192 883.2a21.333333 21.333333 0 1 1-42.666667 0 21.333333 21.333333 0 0 1 42.666667 0z m192 0a21.333333 21.333333 0 1 1-42.666667 0 21.333333 21.333333 0 0 1 42.666667 0z m192 0a21.333333 21.333333 0 1 1-42.666667 0 21.333333 21.333333 0 0 1 42.666667 0z" fill="#5BBBFF" p-id="89679"></path></svg>