<?xml version="1.0" standalone="no"?><!DOCTYPE svg PUBLIC "-//W3C//DTD SVG 1.1//EN" "http://www.w3.org/Graphics/SVG/1.1/DTD/svg11.dtd"><svg t="1765630762156" class="icon" viewBox="0 0 1417 1024" version="1.1" xmlns="http://www.w3.org/2000/svg" p-id="6971" xmlns:xlink="http://www.w3.org/1999/xlink" width="276.7578125" height="200"><path d="M1.496522 780.40991c-10.554419 64.232306 37.413053 101.172773 61.908758 112.357307 24.495704 11.184534 65.728828 0 81.875514 0C266.302177 903.951751 526.106296 1023.988579 849.945811 1023.988579c0 0 524.019042 7.443229 564.188847-360.504307 9.530483-95.501742 5.080299-277.407946-73.762789-286.111404-66.437707-8.427783-106.056161 4.056363-190.373369 20.557489-55.962052 10.908859-196.280693 29.930443-221.091455 44.974428-271.028036 118.697835-418.829288 204.354036-459.31415 217.113857-30.560557 0-57.104134-7.364464-64.468599-69.982101 0-25.716552 101.84227-87.034577 145.517087-96.958882 158.237525-40.169805 276.305246-57.734249 290.167767-57.734249 20.006138 0 458.447743-101.605977 471.916442-111.175842 13.429317-9.609247 27.646277-18.982202 27.646277-52.535804 0-15.359043-35.128888-49.660906-75.101782-91.445379-47.416123-49.542759-103.811378-107.119479-146.029055-120.785089C1041.461263 21.003688 888.934151-10.85648 755.743681 3.636155 464.079392 35.299413 282.094423 342.677184 266.223412 364.022316c-67.343496 90.697118-121.021383 205.574883-149.179628 256.299107-27.213074 48.952027-104.914078 114.838383-115.586644 160.088487z" p-id="6972" fill="#e6e6e6"></path></svg>