<?xml version="1.0" standalone="no"?><!DOCTYPE svg PUBLIC "-//W3C//DTD SVG 1.1//EN" "http://www.w3.org/Graphics/SVG/1.1/DTD/svg11.dtd"><svg t="1765544495947" class="icon" viewBox="0 0 1168 1024" version="1.1" xmlns="http://www.w3.org/2000/svg" p-id="54786" xmlns:xlink="http://www.w3.org/1999/xlink" width="228.125" height="200"><path d="M0.001 569.328422c0-26.116841 18.847886-33.690795 42.069744-33.646796q415.691475 0.783995 831.38295 0.238999c29.533821 0 59.088641-1.544991 88.622462-2.458985 70.972569-2.175987 131.499201-56.890654 138.767157-125.273239 8.340949-78.633522-36.738777-144.83912-110.582328-162.250015-11.49093-2.699984-23.287859-4.134975-34.974788-5.810965-21.763868-3.133981-34.691789-14.320913-32.079805-37.542772 2.499985-22.329864 18.912885-29.163823 38.173768-28.292828 78.916521 3.24298 140.377147 38.413767 179.225912 107.07835a214.461697 214.461697 0 0 1-5.440967 221.622654c-44.199732 69.927575-110.735327 99.461396-192.763829 99.287397q-443.789304-0.978994-887.594609-0.456998c-25.681844 0-54.799667-2.611984-54.799667-32.493802z" fill="#e6e6e6" p-id="54787"></path><path d="M407.117527 359.567696c84.879484 0 169.58497 0.608996 254.377455-0.217999 56.02066-0.543997 98.351403-27.422833 125.665237-75.281542C829.468962 209.899605 801.938129 119.900152 722.996608 80.900389c-58.348646-28.815825-146.058113-21.894867-192.850828 62.745618-5.222968 9.423943-8.944946 19.587881-13.21092 29.599821-8.509948 19.80488-22.873861 31.122811-44.267731 23.243858s-24.72385-24.331852-18.455888-45.921721C486.686044 38.657645 606.562316-24.979968 722.041614 9.275824c95.261421 28.293828 159.854029 122.944253 150.977083 221.230656-9.053945 100.114392-86.859472 181.663897-185.098876 193.024827a630.080173 630.080173 0 0 1-70.493571 3.873977q-220.359661 0.499997-440.763323 0.151999c-6.899958 0-13.799916 0.173999-20.699874 0-32.515802-1.065994-46.16172-12.599923-45.921721-35.387785 0.282998-29.032824 21.654868-32.232804 45.699722-32.079805 83.813491 0.478997 167.582982 0.173999 251.439473 0.173999z m118.48028 419.195454H194.22282c-8.857946 0-32.384803-9.83694-33.733795-30.077818-1.958988-29.489821 23.940855-36.999775 34.58279-36.999775q334.337969-0.804995 668.653939-1.065993c92.605437 0 167.582982 75.368542 163.056009 162.686011-4.96197 95.021423-84.052489 161.053022-179.098912 149.344093-60.285634-7.377955-112.149319-53.234677-128.233221-112.128319-5.418967-19.78388 1.109993-33.690795 18.912885-40.437754 17.410894-6.63796 33.099799-2.306986 41.899746 16.4099 5.027969 10.685935 9.075945 22.024866 15.408906 31.862807 22.655862 34.909788 67.599589 48.399706 106.904351 32.732801a88.992459 88.992459 0 0 0 55.672661-97.19941 87.991466 87.991466 0 0 0-86.490474-74.737546c-115.349299-0.804995-230.698599-0.260998-346.046898-0.260998z" fill="#e6e6e6" p-id="54788"></path><path d="M305.893142 104.100248c26.921836-0.299998 51.885685 23.657856 51.819685 49.752697s-25.441845 50.731692-51.949684 50.339695c-24.899849-0.434997-49.273701-24.222853-50.252695-49.034702-1.022994-26.29084 23.06986-50.688692 50.383694-51.05869zM82.700498 666.112834c25.289846 0.413997 45.199725 20.392876 44.42073 44.594729-0.761995 23.04786-23.461857 44.50773-46.599717 43.832734s-44.768728-22.960861-44.289731-45.834722c0.630996-25.028848 20.199877-43.005739 46.465718-42.591741z m140.512146-158.224039a20.109878 20.109878 0 0 1-15.843904 5.00597c-25.199847-2.806983-34.822788-14.999909-34.234792-32.863801s11.865928-30.882812 32.514803-30.882812c22.177865 0 34.822788 14.211914 32.384803 33.080799-1.305992 10.359937-6.332962 17.933891-14.82091 25.659844z m16.386901 433.930364c-9.662941-16.605899-20.218877-26.682838-18.586887-34.060793 1.784989-7.943952 14.516912-17.410894 23.330858-18.368888 5.484967-0.608996 17.889891 13.493918 17.584893 20.566875-0.367998 8.487948-10.944934 16.584899-22.328864 31.862806z m224.778634-65.008605c11.59993 15.516906 23.134859 24.222853 22.394864 31.861807-0.804995 8.099951-12.274925 19.064884-20.849873 20.999872-5.462967 1.240992-19.413882-11.164932-20.022878-18.259889-0.699996-8.422949 8.835946-17.715892 18.477887-34.59979z m-343.630912-701.605738c9.053945 16.562899 18.281889 25.877843 17.410894 34.082793-0.761995 6.920958-19.69988 18.890885-24.462852 17.410894-8.422949-2.741983-13.732917-13.471918-15.099908-22.090866-1.022994-6.399961 10.424937-14.668911 22.155866-29.399821zM501.964951 683.396729c-11.51293-14.84291-22.568863-23.09186-21.45887-29.119823 1.499991-8.378949 12.143926-15.082908 18.869886-22.525863 6.699959 6.52896 17.584893 12.099927 18.912885 19.587881 1.261992 6.899958-7.464955 15.713905-16.322901 32.057805z" fill="#e6e6e6" p-id="54789"></path></svg>