<?xml version="1.0" standalone="no"?><!DOCTYPE svg PUBLIC "-//W3C//DTD SVG 1.1//EN" "http://www.w3.org/Graphics/SVG/1.1/DTD/svg11.dtd"><svg t="1765544606183" class="icon" viewBox="0 0 1396 1024" version="1.1" xmlns="http://www.w3.org/2000/svg" p-id="59253" xmlns:xlink="http://www.w3.org/1999/xlink" width="272.65625" height="200"><path d="M1121.613576 436.177455c-32.349091 0-63.511273 5.507879-92.299637 15.701333C1015.637333 298.627879 885.162667 178.424242 726.031515 178.424242c-168.184242 0-304.484848 134.268121-304.484848 299.931152v2.459151C286.541576 485.624242 178.424242 594.928485 178.424242 729.072485 178.424242 866.27297 291.29697 977.454545 430.576485 977.454545h691.037091C1273.382788 977.454545 1396.363636 856.312242 1396.363636 706.816c0-149.379879-122.980848-270.638545-274.75006-270.638545z" fill="#EEEEEE" p-id="59254"></path><path d="M173.614545 189.952a22.209939 22.209939 0 0 0 15.189334 5.911273c8.696242 0.054303 16.577939-4.848485 19.991273-12.435394 3.335758-7.540364 1.497212-16.244364-4.639031-21.992727l-73.728-69.158788c-8.471273-7.920485-22.078061-7.920485-30.549333 0a19.525818 19.525818 0 0 0-6.36897 14.328242c0 5.399273 2.296242 10.565818 6.36897 14.336l73.728 69.011394z m319.868122 5.911273a22.24097 22.24097 0 0 0 15.988363-5.911273l73.735758-69.166545A19.525818 19.525818 0 0 0 589.575758 106.457212c0-5.399273-2.296242-10.565818-6.36897-14.336-8.471273-7.912727-22.078061-7.912727-30.549333 0l-73.728 69.166546c-6.144 5.740606-7.974788 14.444606-4.639031 21.992727 3.29697 7.330909 10.78303 12.179394 19.192243 12.435394v0.155151z m-152.25794-59.151515a22.054788 22.054788 0 0 0 15.204849-5.841455 19.820606 19.820606 0 0 0 6.384485-14.328242V18.71903C361.852121 8.122182 352.504242 0 341.302303 0c-11.201939 0-20.549818 8.129939-21.511758 18.711273v97.830788c-0.015515 5.352727 2.234182 10.488242 6.237091 14.258424 4.057212 3.777939 9.510788 5.895758 15.197091 5.911273zM173.606788 447.185455l-73.728 69.158787c-6.136242 5.740606-7.974788 14.452364-4.63903 21.992728 3.413333 7.586909 11.29503 12.489697 19.991272 12.435394a22.24097 22.24097 0 0 0 15.996122-5.911273l73.728-69.166546c4.026182-3.762424 6.291394-8.897939 6.291393-14.250666 0-5.360485-2.265212-10.496-6.283636-14.258424a22.341818 22.341818 0 0 0-15.678061-6.330182 22.341818 22.341818 0 0 0-15.670303 6.330182z m295.082667-197.756122c10.24-5.608727 15.996121-12.156121 9.914181-21.713454-13.986909-23.311515-35.289212-41.921939-60.935757-53.232485-54.147879-26.329212-119.078788-22.791758-169.689212 9.24703-50.315636 31.751758-78.103273 87.195152-72.292849 144.236606 3.436606 50.649212 37.081212 98.753939 85.387637 120.591515 3.017697 1.473939 18.928485 8.215273 22.318545 8.230788 8.153212 0 36.057212-36.569212 107.659636-36.569212-8.269576-92.253091 77.637818-170.790788 77.637819-170.790788z m-321.47394 69.135515a19.820606 19.820606 0 0 0-6.384485-14.328242 22.054788 22.054788 0 0 0-15.204848-5.841454H21.348848c-11.791515 0-21.348848 9.068606-21.348848 20.247272 0 11.186424 9.557333 20.247273 21.348848 20.247273h104.277334a22.04703 22.04703 0 0 0 15.259151-5.895758 19.812848 19.812848 0 0 0 6.33794-14.429091z" fill="#FFD43D" p-id="59255"></path><path d="M706.862545 535.109818a73.69697 73.69697 0 0 1 18.098425 102.632727l-111.243637 158.875152A73.69697 73.69697 0 0 1 492.978424 712.067879l111.243637-158.875152a73.69697 73.69697 0 0 1 102.632727-18.090666zM1024.923152 729.049212a73.69697 73.69697 0 0 1 18.098424 102.632727l-111.243637 158.875152a73.69697 73.69697 0 0 1-120.738909-84.542061l111.243637-158.875151a73.69697 73.69697 0 0 1 102.632727-18.090667z" fill="#49D0FF" p-id="59256"></path></svg>