<?xml version="1.0" standalone="no"?><!DOCTYPE svg PUBLIC "-//W3C//DTD SVG 1.1//EN" "http://www.w3.org/Graphics/SVG/1.1/DTD/svg11.dtd"><svg t="1765544036144" class="icon" viewBox="0 0 1024 1024" version="1.1" xmlns="http://www.w3.org/2000/svg" p-id="38944" xmlns:xlink="http://www.w3.org/1999/xlink" width="200" height="200"><path d="M788.772941 221.278391c-40.096084 0-77.792403 10.099014-110.78918 27.797285C635.987862 105.189728 503.40081 0 345.916189 0 154.93484 0 0.049965 154.784884 0.049965 345.666244s154.884875 345.666244 345.866224 345.666243h442.756762c129.887316 0 235.177033-105.289718 235.177034-235.077043 0.09999-129.787325-105.189728-234.977053-235.077044-234.977053z" fill="#EEF7FF" p-id="38945"></path><path d="M166.433717 844.817498h460.755004c21.19793 0 38.39625-17.19832 38.39625-38.39625s-17.19832-38.39625-38.39625-38.39625H166.433717c-21.19793 0-38.39625 17.19832-38.396251 38.39625s17.19832 38.39625 38.396251 38.39625zM755.176222 844.817498h102.390001c21.19793 0 38.39625-17.19832 38.396251-38.39625s-17.19832-38.39625-38.396251-38.39625H755.176222c-21.19793 0-38.39625 17.19832-38.39625 38.39625s17.19832 38.39625 38.39625 38.39625zM857.566223 947.207499H396.811219c-21.19793 0-38.39625 17.19832-38.396251 38.396251s17.19832 38.39625 38.396251 38.39625h460.755004c21.19793 0 38.39625-17.19832 38.396251-38.39625s-17.19832-38.39625-38.396251-38.396251zM268.823718 947.207499H166.433717c-21.19793 0-38.39625 17.19832-38.396251 38.396251s17.19832 38.39625 38.396251 38.39625h102.390001c21.19793 0 38.39625-17.19832 38.39625-38.39625s-17.19832-38.39625-38.39625-38.396251z" fill="#E5E5E5" p-id="38946"></path></svg>