<?xml version="1.0" standalone="no"?><!DOCTYPE svg PUBLIC "-//W3C//DTD SVG 1.1//EN" "http://www.w3.org/Graphics/SVG/1.1/DTD/svg11.dtd"><svg t="1765544741680" class="icon" viewBox="0 0 1024 1024" version="1.1" xmlns="http://www.w3.org/2000/svg" p-id="85549" xmlns:xlink="http://www.w3.org/1999/xlink" width="200" height="200"><path d="M186.950013 406.890024h27.262999l-8.464 8.447A36.702999 36.702999 0 0 0 221.093011 479.000021a36.846999 36.846999 0 0 0 36.558999-11.839999l60.366998-60.269998h113.405995L328.707007 509.41602a36.719999 36.719999 0 0 0 15.36 63.646998 36.862999 36.862999 0 0 0 36.574998-11.824l103.069996-102.541996v113.197996l-60.366998 60.286997a36.719999 36.719999 0 0 0 1.92 49.902998c13.615999 13.567999 35.375999 14.399999 49.983998 1.904l8.463-8.079999v27.199999a36.782999 36.782999 0 0 0 36.815999 36.750998 36.766999 36.766999 0 0 0 36.814998-36.750998v-27.199999l8.464 8.447999a36.862999 36.862999 0 0 0 49.999998-1.92c13.599999-13.567999 14.430999-35.326999 1.903-49.886998l-60.366998-60.654997V458.697022l102.734996 102.541996c14.606999 12.496 36.350999 11.664 49.982998-1.904s14.447999-35.342999 1.904-49.918998L609.245996 406.890024h113.406996l60.366997 60.269998a36.879999 36.879999 0 0 0 50.014998-1.92 36.702999 36.702999 0 0 0 1.92-49.918998l-8.463999-8.431h27.247999a36.799999 36.799999 0 0 0 36.814998-36.751998 36.799999 36.799999 0 0 0-36.814998-36.750999h-26.895999l8.463999-8.464a36.719999 36.719999 0 0 0-1.92-49.902998 36.846999 36.846999 0 0 0-49.982998-1.92l-60.366997 60.286998h-113.789996l102.749996-102.542996a36.719999 36.719999 0 0 0-1.92-49.918998 36.862999 36.862999 0 0 0-49.999998-1.92l-102.733996 102.189996V167.998033l60.366998-60.286997a36.719999 36.719999 0 0 0-1.904-49.902998 36.879999 36.879999 0 0 0-49.982998-1.92l-8.48 8.08v-27.199999A36.766999 36.766999 0 0 0 520.528 0.00004a36.782999 36.782999 0 0 0-36.815999 36.750999v27.199999l-8.463-8.448a36.894999 36.894999 0 0 0-52.095998 0.176 36.719999 36.719999 0 0 0 0.128 51.950998l0.048 0.048 60.366998 60.286997v113.198996L381.010005 178.620033a36.846999 36.846999 0 0 0-49.982998 1.92 36.702999 36.702999 0 0 0-1.92 49.919998l102.717996 102.525996H318.420008l-60.366998-60.270998a36.846999 36.846999 0 0 0-49.999998 1.92 36.702999 36.702999 0 0 0-1.92 49.918998l8.465 8.432h-27.647999a36.990999 36.990999 0 0 0-36.990999 36.942999 36.990999 36.990999 0 0 0 36.990999 36.959998z m-64.783998 455.383982h796.739969a36.799999 36.799999 0 0 0 36.830999-36.766998 36.799999 36.799999 0 0 0-36.830999-36.766999h-796.739969a36.782999 36.782999 0 0 0 0 73.533997z m796.739969 88.190997h-796.739969a36.857999 36.857999 0 0 0-31.902999 18.383999 36.702999 36.702999 0 0 0 0 36.750999 36.830999 36.830999 0 0 0 31.902999 18.383999h796.739969a36.782999 36.782999 0 0 0 36.830999-36.751999 36.830999 36.830999 0 0 0-36.830999-36.766998z" p-id="85550" fill="#e6e6e6"></path></svg>