<?xml version="1.0" standalone="no"?><!DOCTYPE svg PUBLIC "-//W3C//DTD SVG 1.1//EN" "http://www.w3.org/Graphics/SVG/1.1/DTD/svg11.dtd"><svg t="1765544284661" class="icon" viewBox="0 0 1024 1024" version="1.1" xmlns="http://www.w3.org/2000/svg" p-id="46533" xmlns:xlink="http://www.w3.org/1999/xlink" width="200" height="200"><path d="M746.666667 234.666667c-98.986667 0-185.6 52.053333-234.666667 129.92C462.933333 286.506667 376.32 234.666667 277.333333 234.666667 124.16 234.666667 0 358.826667 0 512s124.16 277.333333 277.333333 277.333333c98.986667 0 185.6-52.053333 234.666667-129.92C561.066667 737.493333 647.68 789.333333 746.666667 789.333333c153.173333 0 277.333333-124.16 277.333333-277.333333s-124.16-277.333333-277.333333-277.333333z" opacity=".2" p-id="46534"></path><path d="M746.666667 234.666667c-98.986667 0-185.6 52.053333-234.666667 129.92C462.933333 286.506667 376.32 234.666667 277.333333 234.666667 124.16 234.666667 0 358.826667 0 512s124.16 277.333333 277.333333 277.333333c98.986667 0 185.6-52.053333 234.666667-129.92C561.066667 737.493333 647.68 789.333333 746.666667 789.333333c153.173333 0 277.333333-124.16 277.333333-277.333333s-124.16-277.333333-277.333333-277.333333zM277.333333 704c-105.813333 0-192-86.186667-192-192s86.186667-192 192-192 192 86.186667 192 192-86.186667 192-192 192z m469.333334 0c-105.813333 0-192-86.186667-192-192s86.186667-192 192-192 192 86.186667 192 192-86.186667 192-192 192z" opacity=".8" p-id="46535"></path><path d="M277.333333 106.666667m-42.666666 0a42.666667 42.666667 0 1 0 85.333333 0 42.666667 42.666667 0 1 0-85.333333 0Z" opacity=".8" p-id="46536"></path><path d="M512 149.333333m-42.666667 0a42.666667 42.666667 0 1 0 85.333334 0 42.666667 42.666667 0 1 0-85.333334 0Z" opacity=".8" p-id="46537"></path><path d="M512 874.666667m-42.666667 0a42.666667 42.666667 0 1 0 85.333334 0 42.666667 42.666667 0 1 0-85.333334 0Z" opacity=".8" p-id="46538"></path><path d="M277.333333 917.333333m-42.666666 0a42.666667 42.666667 0 1 0 85.333333 0 42.666667 42.666667 0 1 0-85.333333 0Z" opacity=".8" p-id="46539"></path><path d="M746.666667 106.666667m-42.666667 0a42.666667 42.666667 0 1 0 85.333333 0 42.666667 42.666667 0 1 0-85.333333 0Z" opacity=".8" p-id="46540"></path><path d="M746.666667 917.333333m-42.666667 0a42.666667 42.666667 0 1 0 85.333333 0 42.666667 42.666667 0 1 0-85.333333 0Z" opacity=".8" p-id="46541"></path></svg>