<?xml version="1.0" standalone="no"?><!DOCTYPE svg PUBLIC "-//W3C//DTD SVG 1.1//EN" "http://www.w3.org/Graphics/SVG/1.1/DTD/svg11.dtd"><svg t="1752914055760" class="icon" viewBox="0 0 1056 1024" version="1.1" xmlns="http://www.w3.org/2000/svg" p-id="68385" xmlns:xlink="http://www.w3.org/1999/xlink" width="206.25" height="200"><path d="M48.865323 341.514316h494.625663c26.061506 0 47.236479-20.632025 47.23648-46.150583s-21.174973-46.150583-47.23648-46.150583H48.865323c-26.061506 0-47.236479 20.632025-47.236479 46.150583s21.174973 46.150583 47.236479 46.150583z m0-248.127253h494.625663c26.061506 0 47.236479-20.632025 47.23648-46.150584s-21.174973-46.150583-47.23648-46.150583H48.865323c-26.061506 0-47.236479 20.632025-47.236479 46.150583 0 24.97561 21.174973 46.150583 47.236479 46.150584z m293.734889 449.560975c0-25.518558-21.174973-46.150583-47.236479-46.150583H48.865323c-26.061506 0-47.236479 20.632025-47.236479 46.150583s21.174973 46.150583 47.236479 46.150583h246.49841c26.061506 0.542948 47.236479-20.089077 47.236479-46.150583z" p-id="68386" fill="#ffffff"></path><path d="M761.756098 0H760.127253c-11.944857 0-22.803818 5.42948-30.948038 13.573701 0 0-0.542948 0-0.542948 0.542948-0.542948 0.542948-1.085896 1.628844-1.628844 2.71474-7.058324 8.687169-11.944857 19.546129-11.944857 31.490986v592.899258c-46.150583-32.576882-105.331919-52.123012-170.485684-52.123012-145.510074 0-263.872747 97.730647-263.872746 217.179216 0 119.991516 118.362672 217.179215 263.872746 217.179215 137.908802 0 251.384942-87.957582 262.243903-199.804878 0-1.628844 0.542948-2.71474 0.542948-3.800636v-8.144221c0-1.628844 0.542948-3.800636 0.542948-5.42948s-0.542948-3.800636-0.542948-5.429481V103.703075c83.613998 21.717922 159.626723 102.074231 159.626723 250.299046 0 27.147402 19.546129 48.865323 44.521739 48.865323 24.432662 0 44.521739-21.717922 44.521739-48.865323 0.542948-231.295864-147.681866-352.373277-294.277836-354.002121z" p-id="68387" fill="#ffffff"></path></svg>