<?xml version="1.0" standalone="no"?><!DOCTYPE svg PUBLIC "-//W3C//DTD SVG 1.1//EN" "http://www.w3.org/Graphics/SVG/1.1/DTD/svg11.dtd"><svg t="1752901783360" class="icon" viewBox="0 0 1024 1024" version="1.1" xmlns="http://www.w3.org/2000/svg" p-id="22551" xmlns:xlink="http://www.w3.org/1999/xlink" width="200" height="200"><path d="M544.036571 545.645714C612.937143 649.069714 666.112 705.389714 731.428571 731.428571V658.285714a36.571429 36.571429 0 0 1 52.882286-32.694857l5.632 3.437714 195.072 146.285715a36.571429 36.571429 0 0 1 4.900572 54.125714l-4.900572 4.388571-195.072 146.285715a36.571429 36.571429 0 0 1-57.929143-22.674286L731.428571 950.857143v-103.131429c-98.084571-23.917714-169.252571-85.942857-251.977142-202.386285 9.142857-13.458286 18.505143-27.501714 28.013714-42.130286l36.571428-57.563429zM738.742857 51.2a36.571429 36.571429 0 0 1 45.568-10.752L789.942857 43.885714l195.072 146.285715a36.571429 36.571429 0 0 1 4.900572 54.125714l-4.900572 4.388571-195.072 146.285715a36.571429 36.571429 0 0 1-57.929143-22.674286L731.428571 365.714286V292.571429c-69.705143 27.794286-125.44 90.112-201.581714 207.36l-39.350857 62.025142-26.331429 40.594286C339.309714 790.454857 248.393143 859.428571 73.142857 859.428571a54.857143 54.857143 0 1 1 0-109.714285c132.681143 0 200.411429-54.418286 312.685714-227.766857l38.034286-59.977143 26.550857-40.96C546.230857 276.918857 622.08 202.898286 731.428571 176.274286V73.142857a36.571429 36.571429 0 0 1 7.314286-21.942857zM73.142857 164.571429c161.206857 0 251.099429 58.441143 361.691429 214.089142-9.142857 13.458286-18.505143 27.501714-28.013715 42.130286l-36.571428 57.563429C267.044571 323.657143 199.533714 274.285714 73.142857 274.285714a54.857143 54.857143 0 0 1 0-109.714285z" fill="#ffffff" p-id="22552"></path></svg>