<?xml version="1.0" standalone="no"?><!DOCTYPE svg PUBLIC "-//W3C//DTD SVG 1.1//EN" "http://www.w3.org/Graphics/SVG/1.1/DTD/svg11.dtd"><svg t="1752902647468" class="icon" viewBox="0 0 1024 1024" version="1.1" xmlns="http://www.w3.org/2000/svg" p-id="37490" xmlns:xlink="http://www.w3.org/1999/xlink" width="200" height="200"><path d="M481.28 40.96L168.96 266.24H51.2c-30.72 0-51.2 20.48-51.2 51.2v389.12c0 30.72 20.48 51.2 51.2 51.2h117.76l312.32 225.28c25.6 15.36 56.32 0 56.32-30.72V71.68c0-30.72-30.72-46.08-56.32-30.72zM696.32 261.12c-20.48-15.36-46.08-10.24-66.56 5.12-20.48 20.48-20.48 61.44 5.12 76.8 51.2 35.84 87.04 97.28 87.04 163.84s-35.84 128-87.04 163.84c-25.6 20.48-30.72 56.32-5.12 76.8 15.36 15.36 46.08 20.48 66.56 5.12 76.8-56.32 128-148.48 128-250.88s-51.2-184.32-128-240.64z" p-id="37491" fill="#ffffff"></path><path d="M849.92 143.36c-20.48-15.36-51.2-15.36-71.68 5.12-20.48 20.48-20.48 56.32 5.12 76.8C870.4 291.84 921.6 394.24 921.6 512s-51.2 220.16-138.24 291.84c-25.6 20.48-25.6 56.32-5.12 76.8 20.48 20.48 51.2 20.48 71.68 5.12 107.52-87.04 174.08-220.16 174.08-368.64s-66.56-286.72-174.08-373.76z" p-id="37492" fill="#ffffff"></path></svg>